<!DOCTYPE svg PUBLIC "-//W3C//DTD SVG 1.1//EN" "http://www.w3.org/Graphics/SVG/1.1/DTD/svg11.dtd">
<!-- Uploaded to: SVG Repo, www.svgrepo.com, Transformed by: SVG Repo Mixer Tools -->
<svg fill="#000000" width="256px" height="256px" viewBox="-2.4 -2.4 28.80 28.80" xmlns="http://www.w3.org/2000/svg" stroke="#000000" stroke-width="0.00024000000000000003" transform="matrix(1, 0, 0, 1, 0, 0)">
<g id="SVGRepo_bgCarrier" stroke-width="0"/>
<g id="SVGRepo_tracerCarrier" stroke-linecap="round" stroke-linejoin="round" stroke="#CCCCCC" stroke-width="0.048"/>
<g id="SVGRepo_iconCarrier">
<path d="m0 11.617c0-3.763 3.05-6.814 6.813-6.817h10.371c3.765 0 6.817 3.052 6.817 6.817s-3.052 6.817-6.817 6.817h-10.366c-3.763 0-6.814-3.05-6.817-6.813zm6.817 4.543c2.507-.002 4.539-2.035 4.539-4.542 0-2.509-2.034-4.542-4.542-4.542s-4.542 2.034-4.542 4.542c0 1.254.508 2.389 1.329 3.21.822.823 1.958 1.332 3.214 1.332h.003z"/>
</g>
</svg>